<svg width="70" height="68" viewBox="0 0 70 68" fill="none" xmlns="http://www.w3.org/2000/svg">

<g id = "githubSvg">
<path fill-rule="evenodd" clip-rule="evenodd" d="M16 0C7.52835 0 0.666687 6.86167 0.666687 15.3333C0.666687 22.1183 5.05585 27.8492 11.1509 29.8808C11.9175 30.015 12.205 29.555 12.205 29.1525C12.205 28.7883 12.1859 27.5808 12.1859 26.2967C8.33335 27.0058 7.33669 25.3575 7.03002 24.495C6.85752 24.0542 6.11002 22.6933 5.45835 22.3292C4.92169 22.0417 4.15502 21.3325 5.43919 21.3133C6.64669 21.2942 7.50919 22.425 7.79669 22.885C9.17669 25.2042 11.3809 24.5525 12.2625 24.15C12.3967 23.1533 12.7992 22.4825 13.24 22.0992C9.82835 21.7158 6.26335 20.3933 6.26335 14.5283C6.26335 12.8608 6.85752 11.4808 7.83502 10.4075C7.68169 10.0242 7.14502 8.4525 7.98835 6.34417C7.98835 6.34417 9.27252 5.94167 12.205 7.91583C13.4317 7.57083 14.735 7.39833 16.0384 7.39833C17.3417 7.39833 18.645 7.57083 19.8717 7.91583C22.8042 5.9225 24.0884 6.34417 24.0884 6.34417C24.9317 8.4525 24.395 10.0242 24.2417 10.4075C25.2192 11.4808 25.8134 12.8417 25.8134 14.5283C25.8134 20.4125 22.2292 21.7158 18.8175 22.0992C19.3734 22.5783 19.8525 23.4983 19.8525 24.9358C19.8525 26.9867 19.8334 28.635 19.8334 29.1525C19.8334 29.555 20.1209 30.0342 20.8875 29.8808C26.9442 27.8492 31.3334 22.0992 31.3334 15.3333C31.3334 6.86167 24.4717 0 16 0Z" fill="white"/>
</g>

<g id ="linkedinSvg">
<rect width="32" height="32" rx="3" fill="white"/>
<path d="M6.33333 2.5C4.76853 2.5 3.5 3.76853 3.5 5.33333C3.5 6.89814 4.76853 8.16667 6.33333 8.16667C7.89814 8.16667 9.16667 6.89814 9.16667 5.33333C9.16667 3.76853 7.89814 2.5 6.33333 2.5Z" fill="rgba(15, 22, 36, 1)"/>
<path d="M3.66667 10.5C3.57462 10.5 3.5 10.5746 3.5 10.6667V28C3.5 28.092 3.57462 28.1667 3.66667 28.1667H9C9.09205 28.1667 9.16667 28.092 9.16667 28V10.6667C9.16667 10.5746 9.09205 10.5 9 10.5H3.66667Z" fill="rgba(15, 22, 36, 1)"/>
<path d="M12.3333 10.5C12.2413 10.5 12.1667 10.5746 12.1667 10.6667V28C12.1667 28.092 12.2413 28.1667 12.3333 28.1667H17.6667C17.7587 28.1667 17.8333 28.092 17.8333 28V18.6667C17.8333 18.0036 18.0967 17.3677 18.5656 16.8989C19.0344 16.4301 19.6703 16.1667 20.3333 16.1667C20.9964 16.1667 21.6323 16.4301 22.1011 16.8989C22.5699 17.3677 22.8333 18.0036 22.8333 18.6667V28C22.8333 28.092 22.908 28.1667 23 28.1667H28.3333C28.4254 28.1667 28.5 28.092 28.5 28V16.507C28.5 13.2713 25.6859 10.74 22.4665 11.0327C21.4736 11.1229 20.4919 11.3697 19.5753 11.7626L17.8333 12.5091V10.6667C17.8333 10.5746 17.7587 10.5 17.6667 10.5H12.3333Z" fill="rgba(15, 22, 36, 1)"/>
</g>

<g id = "figmaSvg">
<path d="M3.12006 2.64099C4.62426 1.1368 6.66438 0.291748 8.79164 0.291748H16.8125V16.3334H8.79164C6.66438 16.3334 4.62426 15.4884 3.12006 13.9842C1.61586 12.48 0.770813 10.4398 0.770813 8.31257C0.770813 6.18532 1.61586 4.14519 3.12006 2.64099Z" fill="white"/>
<path d="M29.2083 16.3334H21.1875V0.291748H29.2083C30.2616 0.291748 31.3046 0.499213 32.2777 0.902297C33.2509 1.30538 34.1351 1.89619 34.8799 2.64099C35.6247 3.38579 36.2155 4.27 36.6186 5.24314C37.0217 6.21627 37.2291 7.25927 37.2291 8.31257C37.2291 9.36588 37.0217 10.4089 36.6186 11.382C36.2155 12.3551 35.6247 13.2394 34.8799 13.9842C34.1351 14.729 33.2509 15.3198 32.2777 15.7229C31.3046 16.1259 30.2616 16.3334 29.2083 16.3334Z" fill="white"/>
<path d="M29.2083 20.7084C28.155 20.7084 27.112 20.9159 26.1389 21.319C25.1657 21.722 24.2815 22.3129 23.5367 23.0577C22.7919 23.8025 22.2011 24.6867 21.798 25.6598C21.3949 26.6329 21.1875 27.6759 21.1875 28.7292C21.1875 29.7826 21.3949 30.8256 21.798 31.7987C22.2011 32.7718 22.7919 33.656 23.5367 34.4008C24.2815 35.1456 25.1657 35.7364 26.1389 36.1395C27.112 36.5426 28.155 36.7501 29.2083 36.7501C30.2616 36.7501 31.3046 36.5426 32.2777 36.1395C33.2509 35.7364 34.1351 35.1456 34.8799 34.4008C35.6247 33.656 36.2155 32.7718 36.6186 31.7987C37.0217 30.8255 37.2291 29.7825 37.2291 28.7292C37.2291 27.6759 37.0217 26.6329 36.6186 25.6598C36.2155 24.6867 35.6247 23.8025 34.8799 23.0577C34.1351 22.3129 33.2509 21.722 32.2777 21.319C31.3046 20.9159 30.2616 20.7084 29.2083 20.7084Z" fill="white"/>
<path d="M3.12006 43.4743C4.62425 41.9701 6.66438 41.1251 8.79164 41.1251H16.8125V49.1459C16.8125 51.2732 15.9674 53.3133 14.4632 54.8175C12.959 56.3217 10.9189 57.1667 8.79164 57.1667C6.66438 57.1667 4.62425 56.3217 3.12006 54.8175C1.61586 53.3133 0.770813 51.2732 0.770813 49.1459C0.770813 47.0187 1.61586 44.9785 3.12006 43.4743Z" fill="white"/>
<path d="M8.79164 20.7084C6.66438 20.7084 4.62426 21.5535 3.12006 23.0577C1.61586 24.5619 0.770813 26.602 0.770813 28.7292C0.770813 30.8565 1.61586 32.8966 3.12006 34.4008C4.62426 35.905 6.66438 36.7501 8.79164 36.7501H16.8125V20.7084H8.79164Z" fill="white"/>
</g>

<g id = "logoSvg">
<path d="M48.0001 24.5C48.0001 29.9368 46.1149 35.2055 42.6658 39.4082C39.2167 43.611 34.4171 46.4878 29.0847 47.5485C23.7523 48.6091 18.2171 47.7881 13.4222 45.2252C8.62737 42.6622 4.86949 38.5161 2.78889 33.4931C0.7083 28.4701 0.433729 22.8811 2.01196 17.6783C3.5902 12.4756 6.92358 7.98102 11.4442 4.96047C15.9647 1.93991 21.3928 0.580255 26.8035 1.11316C32.2141 1.64606 37.2726 4.03856 41.1171 7.88299L38.5486 10.4515C35.2984 7.20129 31.0218 5.1786 26.4474 4.72807C21.8731 4.27754 17.284 5.42703 13.4622 7.9807C9.64038 10.5344 6.82224 14.3342 5.48795 18.7327C4.15367 23.1313 4.3858 27.8564 6.14479 32.103C7.90379 36.3496 11.0808 39.8549 15.1345 42.0217C19.1883 44.1884 23.8679 44.8826 28.376 43.9858C32.8842 43.0891 36.942 40.657 39.8579 37.1039C42.7739 33.5508 44.3677 29.0965 44.3677 24.5H48.0001Z" fill="white"/>
<path d="M16.0158 39.8057C12.4747 37.8429 9.72376 34.7129 8.23168 30.9492C6.73961 27.1854 6.59872 23.0208 7.83303 19.1648C9.06734 15.3088 11.6005 12.0001 15.0008 9.8024C18.4012 7.60473 22.4583 6.65406 26.481 7.11239C30.5037 7.57072 34.243 9.40968 37.0619 12.3159C39.8807 15.2222 41.6046 19.0159 41.9399 23.0508C42.2751 27.0856 41.201 31.1118 38.9005 34.4435C36.6 37.7751 33.2155 40.206 29.3236 41.322L28.578 38.7218C31.8683 37.7783 34.7297 35.7231 36.6746 32.9065C38.6195 30.0898 39.5276 26.6859 39.2442 23.2747C38.9607 19.8636 37.5033 16.6563 35.1202 14.1992C32.737 11.7422 29.5757 10.1875 26.1748 9.79998C22.7739 9.4125 19.3439 10.2162 16.4691 12.0742C13.5943 13.9322 11.4528 16.7295 10.4092 19.9894C9.36572 23.2494 9.48483 26.7703 10.7463 29.9523C12.0077 33.1343 14.3334 35.7805 17.3272 37.4399L16.0158 39.8057Z" fill="white"/>
<path d="M24.5001 12C27.392 12 30.1945 13.0027 32.43 14.8374C34.6655 16.672 36.1957 19.225 36.7599 22.0614C37.3241 24.8977 36.8873 27.842 35.5241 30.3925C34.1608 32.9429 31.9554 34.9418 29.2836 36.0485C26.6118 37.1552 23.6389 37.3012 20.8715 36.4618C18.1041 35.6223 15.7134 33.8492 14.1067 31.4446C12.5 29.0401 11.7768 26.1528 12.0603 23.2748C12.3437 20.3968 13.6163 17.7061 15.6612 15.6612L17.0274 17.0274C15.2986 18.7562 14.2227 21.031 13.9831 23.4642C13.7434 25.8973 14.3549 28.3383 15.7132 30.3712C17.0715 32.4041 19.0927 33.9031 21.4324 34.6128C23.772 35.3225 26.2854 35.1991 28.5442 34.2634C30.803 33.3278 32.6676 31.6379 33.8201 29.4817C34.9726 27.3254 35.3419 24.8363 34.8649 22.4383C34.3879 20.0404 33.0942 17.882 31.2043 16.3309C29.3143 14.7799 26.945 13.9321 24.5001 13.9321L24.5001 12Z" fill="white"/>
<path d="M17.0301 20.4442C17.9684 18.716 19.477 17.3666 21.2987 16.626C23.1204 15.8853 25.1426 15.7993 27.0206 16.3824C28.8987 16.9656 30.5165 18.1819 31.5983 19.8241C32.6801 21.4663 33.159 23.4328 32.9535 25.3886C32.7479 27.3443 31.8706 29.1683 30.471 30.5497C29.0714 31.9311 27.2361 32.7845 25.2778 32.9644C23.3195 33.1444 21.3594 32.6397 19.7315 31.5365C18.1036 30.4333 16.9086 28.7998 16.3501 26.9142L17.7273 26.5063C18.1914 28.0732 19.1845 29.4307 20.5373 30.3475C21.8901 31.2643 23.519 31.6836 25.1464 31.5341C26.7737 31.3846 28.2989 30.6754 29.462 29.5274C30.6251 28.3794 31.3542 26.8637 31.525 25.2384C31.6958 23.6132 31.2978 21.979 30.3988 20.6143C29.4998 19.2495 28.1554 18.2388 26.5947 17.7542C25.034 17.2695 23.3535 17.3411 21.8397 17.9566C20.3258 18.5721 19.0721 19.6934 18.2924 21.1296L17.0301 20.4442Z" fill="white"/>
<path d="M28.2197 27.0327C27.6337 27.8933 26.7675 28.524 25.7687 28.8175C24.7698 29.1111 23.7001 29.0491 22.7417 28.6423C21.7834 28.2356 20.9958 27.5091 20.513 26.5866C20.0303 25.6642 19.8823 24.603 20.0943 23.5837C20.3063 22.5644 20.8652 21.6502 21.6757 20.9968C22.4862 20.3433 23.4982 19.9912 24.5393 20.0002C25.5803 20.0093 26.586 20.3791 27.385 21.0466C28.184 21.714 28.7269 22.6379 28.921 23.6607L28.0934 23.8178C27.9356 22.9865 27.4944 22.2356 26.845 21.6931C26.1955 21.1505 25.3781 20.85 24.5319 20.8426C23.6858 20.8352 22.8632 21.1215 22.2044 21.6526C21.5456 22.1837 21.0914 22.9268 20.9191 23.7552C20.7467 24.5837 20.867 25.4463 21.2594 26.196C21.6517 26.9458 22.2919 27.5363 23.0709 27.8669C23.8498 28.1976 24.7193 28.2479 25.5312 28.0093C26.3431 27.7708 27.0471 27.2581 27.5234 26.5586L28.2197 27.0327Z" fill="white"/>
<path d="M23.7068 22.1292C24.2553 21.9457 24.8504 21.958 25.3909 22.1641C25.9313 22.3702 26.3835 22.7573 26.6705 23.2595C26.9575 23.7616 27.0615 24.3477 26.9648 24.918C26.8681 25.4882 26.5767 26.0073 26.1402 26.3868C25.7037 26.7662 25.1491 26.9826 24.5709 26.999C23.9928 27.0154 23.4268 26.8308 22.9695 26.4767C22.5122 26.1226 22.1918 25.6209 22.0629 25.0571C21.934 24.4932 22.0046 23.9021 22.2627 23.3845L23.1394 23.8216C22.9825 24.1364 22.9395 24.4959 23.0179 24.8388C23.0963 25.1817 23.2911 25.4868 23.5693 25.7021C23.8474 25.9174 24.1916 26.0297 24.5431 26.0197C24.8947 26.0097 25.232 25.8782 25.4975 25.6474C25.7629 25.4166 25.9402 25.101 25.999 24.7542C26.0578 24.4074 25.9945 24.051 25.82 23.7456C25.6454 23.4402 25.3704 23.2048 25.0418 23.0795C24.7131 22.9541 24.3512 22.9466 24.0176 23.0582L23.7068 22.1292Z" fill="white"/>
<circle cx="24.5001" cy="24.5" r="0.5" transform="rotate(-180 24.5001 24.5)" fill="white"/>

</g>

<path  id= "instagramSvg" fill-rule="evenodd" clip-rule="evenodd" d="M12 2C9.284 2 8.944 2.012 7.877 2.06C6.813 2.109 6.086 2.278 5.45 2.525C4.78249 2.77584 4.17775 3.16933 3.678 3.678C3.16936 4.17777 2.77587 4.7825 2.525 5.45C2.278 6.086 2.109 6.813 2.06 7.877C2.011 8.944 2 9.284 2 12C2 14.716 2.011 15.056 2.06 16.123C2.109 17.187 2.278 17.914 2.525 18.55C2.7759 19.2175 3.16938 19.8222 3.678 20.322C4.17779 20.8306 4.78252 21.2241 5.45 21.475C6.086 21.722 6.813 21.891 7.877 21.94C8.944 21.988 9.284 22 12 22C14.716 22 15.056 21.988 16.123 21.94C17.187 21.891 17.914 21.722 18.55 21.475C19.2175 21.2241 19.8222 20.8306 20.322 20.322C20.8306 19.8222 21.2241 19.2175 21.475 18.55C21.722 17.914 21.891 17.187 21.94 16.123C21.988 15.056 22 14.716 22 12C22 9.284 21.988 8.944 21.94 7.877C21.891 6.813 21.722 6.086 21.475 5.45C21.2241 4.7825 20.8306 4.17777 20.322 3.678C19.8222 3.16933 19.2175 2.77584 18.55 2.525C17.914 2.278 17.187 2.109 16.123 2.06C15.056 2.012 14.716 2 12 2ZM12 3.802C14.67 3.802 14.986 3.812 16.04 3.86C17.016 3.905 17.545 4.067 17.898 4.204C18.364 4.386 18.698 4.603 19.048 4.952C19.398 5.302 19.614 5.636 19.796 6.102C19.932 6.455 20.096 6.984 20.14 7.959C20.188 9.014 20.198 9.329 20.198 12C20.198 14.67 20.188 14.986 20.14 16.04C20.095 17.016 19.932 17.545 19.796 17.898C19.6357 18.3324 19.3801 18.7253 19.048 19.048C18.698 19.398 18.364 19.614 17.898 19.796C17.545 19.932 17.016 20.096 16.041 20.14C14.987 20.188 14.671 20.198 12 20.198C9.33 20.198 9.013 20.188 7.96 20.14C6.984 20.095 6.455 19.932 6.102 19.796C5.66758 19.6357 5.27462 19.3801 4.952 19.048C4.61986 18.7254 4.36426 18.3324 4.204 17.898C4.067 17.545 3.904 17.016 3.86 16.041C3.812 14.986 3.802 14.671 3.802 12C3.802 9.33 3.812 9.014 3.86 7.96C3.905 6.984 4.067 6.455 4.204 6.102C4.386 5.636 4.603 5.302 4.952 4.952C5.302 4.602 5.636 4.386 6.102 4.204C6.455 4.067 6.984 3.904 7.959 3.86C9.014 3.812 9.329 3.802 12 3.802ZM12 15.333C11.116 15.333 10.2683 14.9818 9.64321 14.3568C9.01815 13.7317 8.667 12.884 8.667 12C8.667 11.116 9.01815 10.2683 9.64321 9.64321C10.2683 9.01815 11.116 8.667 12 8.667C12.884 8.667 13.7317 9.01815 14.3568 9.64321C14.9818 10.2683 15.333 11.116 15.333 12C15.333 12.884 14.9818 13.7317 14.3568 14.3568C13.7317 14.9818 12.884 15.333 12 15.333ZM12 6.865C11.3257 6.865 10.6579 6.99782 10.0349 7.25588C9.41191 7.51394 8.84584 7.89218 8.36901 8.36901C7.89218 8.84584 7.51394 9.41191 7.25588 10.0349C6.99782 10.6579 6.865 11.3257 6.865 12C6.865 12.6743 6.99782 13.3421 7.25588 13.9651C7.51394 14.5881 7.89218 15.1542 8.36901 15.631C8.84584 16.1078 9.41191 16.4861 10.0349 16.7441C10.6579 17.0022 11.3257 17.135 12 17.135C13.3619 17.135 14.668 16.594 15.631 15.631C16.594 14.668 17.135 13.3619 17.135 12C17.135 10.6381 16.594 9.33201 15.631 8.36901C14.668 7.40601 13.3619 6.865 12 6.865ZM18.538 6.662C18.538 6.81959 18.507 6.97563 18.4467 7.12122C18.3863 7.26681 18.298 7.3991 18.1865 7.51053C18.0751 7.62196 17.9428 7.71035 17.7972 7.77066C17.6516 7.83096 17.4956 7.862 17.338 7.862C17.1804 7.862 17.0244 7.83096 16.8788 7.77066C16.7332 7.71035 16.6009 7.62196 16.4895 7.51053C16.378 7.3991 16.2897 7.26681 16.2293 7.12122C16.169 6.97563 16.138 6.81959 16.138 6.662C16.138 6.34374 16.2644 6.03852 16.4895 5.81347C16.7145 5.58843 17.0197 5.462 17.338 5.462C17.6563 5.462 17.9615 5.58843 18.1865 5.81347C18.4116 6.03852 18.538 6.34374 18.538 6.662Z" fill="white"/>
</svg>
