<svg width="70" height="68" viewBox="0 0 70 68" fill="none" xmlns="http://www.w3.org/2000/svg">

<g id = "githubSvg">
<path fill-rule="evenodd" clip-rule="evenodd" d="M16 0C7.52835 0 0.666687 6.86167 0.666687 15.3333C0.666687 22.1183 5.05585 27.8492 11.1509 29.8808C11.9175 30.015 12.205 29.555 12.205 29.1525C12.205 28.7883 12.1859 27.5808 12.1859 26.2967C8.33335 27.0058 7.33669 25.3575 7.03002 24.495C6.85752 24.0542 6.11002 22.6933 5.45835 22.3292C4.92169 22.0417 4.15502 21.3325 5.43919 21.3133C6.64669 21.2942 7.50919 22.425 7.79669 22.885C9.17669 25.2042 11.3809 24.5525 12.2625 24.15C12.3967 23.1533 12.7992 22.4825 13.24 22.0992C9.82835 21.7158 6.26335 20.3933 6.26335 14.5283C6.26335 12.8608 6.85752 11.4808 7.83502 10.4075C7.68169 10.0242 7.14502 8.4525 7.98835 6.34417C7.98835 6.34417 9.27252 5.94167 12.205 7.91583C13.4317 7.57083 14.735 7.39833 16.0384 7.39833C17.3417 7.39833 18.645 7.57083 19.8717 7.91583C22.8042 5.9225 24.0884 6.34417 24.0884 6.34417C24.9317 8.4525 24.395 10.0242 24.2417 10.4075C25.2192 11.4808 25.8134 12.8417 25.8134 14.5283C25.8134 20.4125 22.2292 21.7158 18.8175 22.0992C19.3734 22.5783 19.8525 23.4983 19.8525 24.9358C19.8525 26.9867 19.8334 28.635 19.8334 29.1525C19.8334 29.555 20.1209 30.0342 20.8875 29.8808C26.9442 27.8492 31.3334 22.0992 31.3334 15.3333C31.3334 6.86167 24.4717 0 16 0Z" fill="white"/>
</g>

<g id ="linkedinSvg">
<rect width="32" height="32" rx="3" fill="white"/>
<path d="M6.33333 2.5C4.76853 2.5 3.5 3.76853 3.5 5.33333C3.5 6.89814 4.76853 8.16667 6.33333 8.16667C7.89814 8.16667 9.16667 6.89814 9.16667 5.33333C9.16667 3.76853 7.89814 2.5 6.33333 2.5Z" fill="rgba(15, 22, 36, 1)"/>
<path d="M3.66667 10.5C3.57462 10.5 3.5 10.5746 3.5 10.6667V28C3.5 28.092 3.57462 28.1667 3.66667 28.1667H9C9.09205 28.1667 9.16667 28.092 9.16667 28V10.6667C9.16667 10.5746 9.09205 10.5 9 10.5H3.66667Z" fill="rgba(15, 22, 36, 1)"/>
<path d="M12.3333 10.5C12.2413 10.5 12.1667 10.5746 12.1667 10.6667V28C12.1667 28.092 12.2413 28.1667 12.3333 28.1667H17.6667C17.7587 28.1667 17.8333 28.092 17.8333 28V18.6667C17.8333 18.0036 18.0967 17.3677 18.5656 16.8989C19.0344 16.4301 19.6703 16.1667 20.3333 16.1667C20.9964 16.1667 21.6323 16.4301 22.1011 16.8989C22.5699 17.3677 22.8333 18.0036 22.8333 18.6667V28C22.8333 28.092 22.908 28.1667 23 28.1667H28.3333C28.4254 28.1667 28.5 28.092 28.5 28V16.507C28.5 13.2713 25.6859 10.74 22.4665 11.0327C21.4736 11.1229 20.4919 11.3697 19.5753 11.7626L17.8333 12.5091V10.6667C17.8333 10.5746 17.7587 10.5 17.6667 10.5H12.3333Z" fill="rgba(15, 22, 36, 1)"/>
</g>

<g id = "figmaSvg">
<path d="M3.12006 2.64099C4.62426 1.1368 6.66438 0.291748 8.79164 0.291748H16.8125V16.3334H8.79164C6.66438 16.3334 4.62426 15.4884 3.12006 13.9842C1.61586 12.48 0.770813 10.4398 0.770813 8.31257C0.770813 6.18532 1.61586 4.14519 3.12006 2.64099Z" fill="white"/>
<path d="M29.2083 16.3334H21.1875V0.291748H29.2083C30.2616 0.291748 31.3046 0.499213 32.2777 0.902297C33.2509 1.30538 34.1351 1.89619 34.8799 2.64099C35.6247 3.38579 36.2155 4.27 36.6186 5.24314C37.0217 6.21627 37.2291 7.25927 37.2291 8.31257C37.2291 9.36588 37.0217 10.4089 36.6186 11.382C36.2155 12.3551 35.6247 13.2394 34.8799 13.9842C34.1351 14.729 33.2509 15.3198 32.2777 15.7229C31.3046 16.1259 30.2616 16.3334 29.2083 16.3334Z" fill="white"/>
<path d="M29.2083 20.7084C28.155 20.7084 27.112 20.9159 26.1389 21.319C25.1657 21.722 24.2815 22.3129 23.5367 23.0577C22.7919 23.8025 22.2011 24.6867 21.798 25.6598C21.3949 26.6329 21.1875 27.6759 21.1875 28.7292C21.1875 29.7826 21.3949 30.8256 21.798 31.7987C22.2011 32.7718 22.7919 33.656 23.5367 34.4008C24.2815 35.1456 25.1657 35.7364 26.1389 36.1395C27.112 36.5426 28.155 36.7501 29.2083 36.7501C30.2616 36.7501 31.3046 36.5426 32.2777 36.1395C33.2509 35.7364 34.1351 35.1456 34.8799 34.4008C35.6247 33.656 36.2155 32.7718 36.6186 31.7987C37.0217 30.8255 37.2291 29.7825 37.2291 28.7292C37.2291 27.6759 37.0217 26.6329 36.6186 25.6598C36.2155 24.6867 35.6247 23.8025 34.8799 23.0577C34.1351 22.3129 33.2509 21.722 32.2777 21.319C31.3046 20.9159 30.2616 20.7084 29.2083 20.7084Z" fill="white"/>
<path d="M3.12006 43.4743C4.62425 41.9701 6.66438 41.1251 8.79164 41.1251H16.8125V49.1459C16.8125 51.2732 15.9674 53.3133 14.4632 54.8175C12.959 56.3217 10.9189 57.1667 8.79164 57.1667C6.66438 57.1667 4.62425 56.3217 3.12006 54.8175C1.61586 53.3133 0.770813 51.2732 0.770813 49.1459C0.770813 47.0187 1.61586 44.9785 3.12006 43.4743Z" fill="white"/>
<path d="M8.79164 20.7084C6.66438 20.7084 4.62426 21.5535 3.12006 23.0577C1.61586 24.5619 0.770813 26.602 0.770813 28.7292C0.770813 30.8565 1.61586 32.8966 3.12006 34.4008C4.62426 35.905 6.66438 36.7501 8.79164 36.7501H16.8125V20.7084H8.79164Z" fill="white"/>
</g>

<g id = "logoSvg">
<path d="M48.0001 24.5C48.0001 29.9368 46.1149 35.2055 42.6658 39.4082C39.2167 43.611 34.4171 46.4878 29.0847 47.5485C23.7523 48.6091 18.2171 47.7881 13.4222 45.2252C8.62737 42.6622 4.86949 38.5161 2.78889 33.4931C0.7083 28.4701 0.433729 22.8811 2.01196 17.6783C3.5902 12.4756 6.92358 7.98102 11.4442 4.96047C15.9647 1.93991 21.3928 0.580255 26.8035 1.11316C32.2141 1.64606 37.2726 4.03856 41.1171 7.88299L38.5486 10.4515C35.2984 7.20129 31.0218 5.1786 26.4474 4.72807C21.8731 4.27754 17.284 5.42703 13.4622 7.9807C9.64038 10.5344 6.82224 14.3342 5.48795 18.7327C4.15367 23.1313 4.3858 27.8564 6.14479 32.103C7.90379 36.3496 11.0808 39.8549 15.1345 42.0217C19.1883 44.1884 23.8679 44.8826 28.376 43.9858C32.8842 43.0891 36.942 40.657 39.8579 37.1039C42.7739 33.5508 44.3677 29.0965 44.3677 24.5H48.0001Z" fill="white"/>
<path d="M16.0158 39.8057C12.4747 37.8429 9.72376 34.7129 8.23168 30.9492C6.73961 27.1854 6.59872 23.0208 7.83303 19.1648C9.06734 15.3088 11.6005 12.0001 15.0008 9.8024C18.4012 7.60473 22.4583 6.65406 26.481 7.11239C30.5037 7.57072 34.243 9.40968 37.0619 12.3159C39.8807 15.2222 41.6046 19.0159 41.9399 23.0508C42.2751 27.0856 41.201 31.1118 38.9005 34.4435C36.6 37.7751 33.2155 40.206 29.3236 41.322L28.578 38.7218C31.8683 37.7783 34.7297 35.7231 36.6746 32.9065C38.6195 30.0898 39.5276 26.6859 39.2442 23.2747C38.9607 19.8636 37.5033 16.6563 35.1202 14.1992C32.737 11.7422 29.5757 10.1875 26.1748 9.79998C22.7739 9.4125 19.3439 10.2162 16.4691 12.0742C13.5943 13.9322 11.4528 16.7295 10.4092 19.9894C9.36572 23.2494 9.48483 26.7703 10.7463 29.9523C12.0077 33.1343 14.3334 35.7805 17.3272 37.4399L16.0158 39.8057Z" fill="white"/>
<path d="M24.5001 12C27.392 12 30.1945 13.0027 32.43 14.8374C34.6655 16.672 36.1957 19.225 36.7599 22.0614C37.3241 24.8977 36.8873 27.842 35.5241 30.3925C34.1608 32.9429 31.9554 34.9418 29.2836 36.0485C26.6118 37.1552 23.6389 37.3012 20.8715 36.4618C18.1041 35.6223 15.7134 33.8492 14.1067 31.4446C12.5 29.0401 11.7768 26.1528 12.0603 23.2748C12.3437 20.3968 13.6163 17.7061 15.6612 15.6612L17.0274 17.0274C15.2986 18.7562 14.2227 21.031 13.9831 23.4642C13.7434 25.8973 14.3549 28.3383 15.7132 30.3712C17.0715 32.4041 19.0927 33.9031 21.4324 34.6128C23.772 35.3225 26.2854 35.1991 28.5442 34.2634C30.803 33.3278 32.6676 31.6379 33.8201 29.4817C34.9726 27.3254 35.3419 24.8363 34.8649 22.4383C34.3879 20.0404 33.0942 17.882 31.2043 16.3309C29.3143 14.7799 26.945 13.9321 24.5001 13.9321L24.5001 12Z" fill="white"/>
<path d="M17.0301 20.4442C17.9684 18.716 19.477 17.3666 21.2987 16.626C23.1204 15.8853 25.1426 15.7993 27.0206 16.3824C28.8987 16.9656 30.5165 18.1819 31.5983 19.8241C32.6801 21.4663 33.159 23.4328 32.9535 25.3886C32.7479 27.3443 31.8706 29.1683 30.471 30.5497C29.0714 31.9311 27.2361 32.7845 25.2778 32.9644C23.3195 33.1444 21.3594 32.6397 19.7315 31.5365C18.1036 30.4333 16.9086 28.7998 16.3501 26.9142L17.7273 26.5063C18.1914 28.0732 19.1845 29.4307 20.5373 30.3475C21.8901 31.2643 23.519 31.6836 25.1464 31.5341C26.7737 31.3846 28.2989 30.6754 29.462 29.5274C30.6251 28.3794 31.3542 26.8637 31.525 25.2384C31.6958 23.6132 31.2978 21.979 30.3988 20.6143C29.4998 19.2495 28.1554 18.2388 26.5947 17.7542C25.034 17.2695 23.3535 17.3411 21.8397 17.9566C20.3258 18.5721 19.0721 19.6934 18.2924 21.1296L17.0301 20.4442Z" fill="white"/>
<path d="M28.2197 27.0327C27.6337 27.8933 26.7675 28.524 25.7687 28.8175C24.7698 29.1111 23.7001 29.0491 22.7417 28.6423C21.7834 28.2356 20.9958 27.5091 20.513 26.5866C20.0303 25.6642 19.8823 24.603 20.0943 23.5837C20.3063 22.5644 20.8652 21.6502 21.6757 20.9968C22.4862 20.3433 23.4982 19.9912 24.5393 20.0002C25.5803 20.0093 26.586 20.3791 27.385 21.0466C28.184 21.714 28.7269 22.6379 28.921 23.6607L28.0934 23.8178C27.9356 22.9865 27.4944 22.2356 26.845 21.6931C26.1955 21.1505 25.3781 20.85 24.5319 20.8426C23.6858 20.8352 22.8632 21.1215 22.2044 21.6526C21.5456 22.1837 21.0914 22.9268 20.9191 23.7552C20.7467 24.5837 20.867 25.4463 21.2594 26.196C21.6517 26.9458 22.2919 27.5363 23.0709 27.8669C23.8498 28.1976 24.7193 28.2479 25.5312 28.0093C26.3431 27.7708 27.0471 27.2581 27.5234 26.5586L28.2197 27.0327Z" fill="white"/>
<path d="M23.7068 22.1292C24.2553 21.9457 24.8504 21.958 25.3909 22.1641C25.9313 22.3702 26.3835 22.7573 26.6705 23.2595C26.9575 23.7616 27.0615 24.3477 26.9648 24.918C26.8681 25.4882 26.5767 26.0073 26.1402 26.3868C25.7037 26.7662 25.1491 26.9826 24.5709 26.999C23.9928 27.0154 23.4268 26.8308 22.9695 26.4767C22.5122 26.1226 22.1918 25.6209 22.0629 25.0571C21.934 24.4932 22.0046 23.9021 22.2627 23.3845L23.1394 23.8216C22.9825 24.1364 22.9395 24.4959 23.0179 24.8388C23.0963 25.1817 23.2911 25.4868 23.5693 25.7021C23.8474 25.9174 24.1916 26.0297 24.5431 26.0197C24.8947 26.0097 25.232 25.8782 25.4975 25.6474C25.7629 25.4166 25.9402 25.101 25.999 24.7542C26.0578 24.4074 25.9945 24.051 25.82 23.7456C25.6454 23.4402 25.3704 23.2048 25.0418 23.0795C24.7131 22.9541 24.3512 22.9466 24.0176 23.0582L23.7068 22.1292Z" fill="white"/>
<circle cx="24.5001" cy="24.5" r="0.5" transform="rotate(-180 24.5001 24.5)" fill="white"/>

</g>

<path  id= "instagramSvg" fill-rule="evenodd" clip-rule="evenodd" d="M12 2C9.284 2 8.944 2.012 7.877 2.06C6.813 2.109 6.086 2.278 5.45 2.525C4.78249 2.77584 4.17775 3.16933 3.678 3.678C3.16936 4.17777 2.77587 4.7825 2.525 5.45C2.278 6.086 2.109 6.813 2.06 7.877C2.011 8.944 2 9.284 2 12C2 14.716 2.011 15.056 2.06 16.123C2.109 17.187 2.278 17.914 2.525 18.55C2.7759 19.2175 3.16938 19.8222 3.678 20.322C4.17779 20.8306 4.78252 21.2241 5.45 21.475C6.086 21.722 6.813 21.891 7.877 21.94C8.944 21.988 9.284 22 12 22C14.716 22 15.056 21.988 16.123 21.94C17.187 21.891 17.914 21.722 18.55 21.475C19.2175 21.2241 19.8222 20.8306 20.322 20.322C20.8306 19.8222 21.2241 19.2175 21.475 18.55C21.722 17.914 21.891 17.187 21.94 16.123C21.988 15.056 22 14.716 22 12C22 9.284 21.988 8.944 21.94 7.877C21.891 6.813 21.722 6.086 21.475 5.45C21.2241 4.7825 20.8306 4.17777 20.322 3.678C19.8222 3.16933 19.2175 2.77584 18.55 2.525C17.914 2.278 17.187 2.109 16.123 2.06C15.056 2.012 14.716 2 12 2ZM12 3.802C14.67 3.802 14.986 3.812 16.04 3.86C17.016 3.905 17.545 4.067 17.898 4.204C18.364 4.386 18.698 4.603 19.048 4.952C19.398 5.302 19.614 5.636 19.796 6.102C19.932 6.455 20.096 6.984 20.14 7.959C20.188 9.014 20.198 9.329 20.198 12C20.198 14.67 20.188 14.986 20.14 16.04C20.095 17.016 19.932 17.545 19.796 17.898C19.6357 18.3324 19.3801 18.7253 19.048 19.048C18.698 19.398 18.364 19.614 17.898 19.796C17.545 19.932 17.016 20.096 16.041 20.14C14.987 20.188 14.671 20.198 12 20.198C9.33 20.198 9.013 20.188 7.96 20.14C6.984 20.095 6.455 19.932 6.102 19.796C5.66758 19.6357 5.27462 19.3801 4.952 19.048C4.61986 18.7254 4.36426 18.3324 4.204 17.898C4.067 17.545 3.904 17.016 3.86 16.041C3.812 14.986 3.802 14.671 3.802 12C3.802 9.33 3.812 9.014 3.86 7.96C3.905 6.984 4.067 6.455 4.204 6.102C4.386 5.636 4.603 5.302 4.952 4.952C5.302 4.602 5.636 4.386 6.102 4.204C6.455 4.067 6.984 3.904 7.959 3.86C9.014 3.812 9.329 3.802 12 3.802ZM12 15.333C11.116 15.333 10.2683 14.9818 9.64321 14.3568C9.01815 13.7317 8.667 12.884 8.667 12C8.667 11.116 9.01815 10.2683 9.64321 9.64321C10.2683 9.01815 11.116 8.667 12 8.667C12.884 8.667 13.7317 9.01815 14.3568 9.64321C14.9818 10.2683 15.333 11.116 15.333 12C15.333 12.884 14.9818 13.7317 14.3568 14.3568C13.7317 14.9818 12.884 15.333 12 15.333ZM12 6.865C11.3257 6.865 10.6579 6.99782 10.0349 7.25588C9.41191 7.51394 8.84584 7.89218 8.36901 8.36901C7.89218 8.84584 7.51394 9.41191 7.25588 10.0349C6.99782 10.6579 6.865 11.3257 6.865 12C6.865 12.6743 6.99782 13.3421 7.25588 13.9651C7.51394 14.5881 7.89218 15.1542 8.36901 15.631C8.84584 16.1078 9.41191 16.4861 10.0349 16.7441C10.6579 17.0022 11.3257 17.135 12 17.135C13.3619 17.135 14.668 16.594 15.631 15.631C16.594 14.668 17.135 13.3619 17.135 12C17.135 10.6381 16.594 9.33201 15.631 8.36901C14.668 7.40601 13.3619 6.865 12 6.865ZM18.538 6.662C18.538 6.81959 18.507 6.97563 18.4467 7.12122C18.3863 7.26681 18.298 7.3991 18.1865 7.51053C18.0751 7.62196 17.9428 7.71035 17.7972 7.77066C17.6516 7.83096 17.4956 7.862 17.338 7.862C17.1804 7.862 17.0244 7.83096 16.8788 7.77066C16.7332 7.71035 16.6009 7.62196 16.4895 7.51053C16.378 7.3991 16.2897 7.26681 16.2293 7.12122C16.169 6.97563 16.138 6.81959 16.138 6.662C16.138 6.34374 16.2644 6.03852 16.4895 5.81347C16.7145 5.58843 17.0197 5.462 17.338 5.462C17.6563 5.462 17.9615 5.58843 18.1865 5.81347C18.4116 6.03852 18.538 6.34374 18.538 6.662Z" fill="white"/>

<path id= "SkillsGitHubSvg" d="M33.7891 69.7917C33.9627 69.5312 33.8976 69.2491 33.5938 68.9453C33.2031 68.6415 32.8993 68.5981 32.6823 68.8151C32.5087 69.0755 32.5738 69.3576 32.8776 69.6615C33.2682 69.9653 33.572 70.0087 33.7891 69.7917ZM31.9661 67.1224C31.7491 66.8186 31.4887 66.7318 31.1849 66.862C30.9245 67.0356 30.9245 67.296 31.1849 67.6432C31.4887 67.9904 31.7491 68.099 31.9661 67.9688C32.2266 67.7951 32.2266 67.513 31.9661 67.1224ZM29.2969 64.5182C29.3837 64.3446 29.2752 64.171 28.9714 63.9974C28.6675 63.9106 28.4939 63.954 28.4505 64.1276C28.3203 64.3446 28.4071 64.5182 28.7109 64.6484C29.0582 64.7352 29.2535 64.6918 29.2969 64.5182ZM30.6641 66.0156C30.7509 65.9722 30.7834 65.8746 30.7617 65.7227C30.74 65.5707 30.6641 65.4514 30.5339 65.3646C30.2734 65.0608 30.0564 64.9957 29.8828 65.1693C29.7092 65.3429 29.7309 65.5816 29.9479 65.8854C30.2083 66.1458 30.447 66.1892 30.6641 66.0156ZM36.263 70.8984C36.3498 70.5946 36.1545 70.3559 35.6771 70.1823C35.2865 70.0521 35.0043 70.1389 34.8307 70.4427C34.7439 70.7465 34.9392 70.9852 35.4167 71.1589C35.8073 71.2891 36.0894 71.2023 36.263 70.8984ZM38.9974 71.0938C38.9974 70.7465 38.737 70.5729 38.2161 70.5729C37.7821 70.5729 37.5651 70.7465 37.5651 71.0938C37.5651 71.441 37.8038 71.6146 38.2812 71.6146C38.7587 71.6146 38.9974 71.441 38.9974 71.0938ZM41.5365 70.638C41.4496 70.3342 41.1675 70.2257 40.6901 70.3125C40.2127 70.3993 40.0174 70.5946 40.1042 70.8984C40.191 71.2457 40.4514 71.3759 40.8854 71.2891C41.3194 71.2023 41.5365 70.9852 41.5365 70.638ZM83.3333 50C83.3333 40.7986 80.0781 32.9427 73.5677 26.4323C67.0573 19.9219 59.2014 16.6667 50 16.6667C40.7986 16.6667 32.9427 19.9219 26.4323 26.4323C19.9219 32.9427 16.6667 40.7986 16.6667 50C16.6667 57.2483 18.7934 63.7695 23.0469 69.5638C27.3003 75.3581 32.7691 79.3837 39.4531 81.6406C40.2344 81.7708 40.8095 81.6623 41.1784 81.3151C41.5473 80.9679 41.7318 80.5339 41.7318 80.013C41.7318 77.7561 41.7101 75.6944 41.6667 73.8281C41.4062 73.8715 41.0699 73.9258 40.6576 73.9909C40.2452 74.056 39.4748 74.0994 38.3464 74.1211C37.2179 74.1428 36.1762 74.056 35.2214 73.8607C34.2665 73.6654 33.3225 73.2313 32.3893 72.5586C31.4562 71.8858 30.816 70.9852 30.4687 69.8568C29.4705 67.296 28.2335 65.6901 26.7578 65.0391C26.671 64.9957 26.5733 64.9197 26.4648 64.8112L25.944 64.2904L25.4883 63.6719L25.7487 63.1836L27.0182 62.9557C27.2786 62.9557 27.6042 62.9991 27.9948 63.0859C28.3854 63.1727 29.0365 63.5091 29.9479 64.095C30.8594 64.681 31.5755 65.4514 32.0964 66.4062C32.7908 67.6215 33.6046 68.533 34.5378 69.1406C35.4709 69.7483 36.4149 70.0521 37.3698 70.0521C38.3246 70.0521 39.1493 69.9761 39.8438 69.8242C40.5382 69.6723 41.1892 69.4661 41.7969 69.2057C42.1007 67.1658 42.8168 65.6684 43.9453 64.7135C41.8186 64.4531 39.9523 64.0516 38.3464 63.5091C36.7405 62.9666 35.1562 62.1202 33.5938 60.9701C32.0312 59.8199 30.8268 58.1706 29.9805 56.0221C29.1341 53.8737 28.7109 51.2804 28.7109 48.2422C28.7109 44.8134 29.8611 41.8403 32.1615 39.3229C31.1198 36.6319 31.2283 33.6806 32.487 30.4687C33.3116 30.2083 34.4944 30.3711 36.0352 30.957C37.576 31.543 38.8889 32.1832 39.974 32.8776L41.6667 33.9193C44.184 33.1814 46.9618 32.8125 50 32.8125C53.0382 32.8125 55.816 33.1814 58.3333 33.9193C58.8108 33.6155 59.4293 33.2248 60.1888 32.7474C60.9483 32.27 62.1528 31.7057 63.8021 31.0547C65.4514 30.4036 66.6884 30.2083 67.513 30.4687C68.7717 33.6806 68.8802 36.6319 67.8385 39.3229C70.1389 41.8403 71.2891 44.8134 71.2891 48.2422C71.2891 50.7161 70.9852 52.8971 70.3776 54.7852C69.77 56.6732 68.9996 58.1923 68.0664 59.3424C67.1332 60.4926 65.9722 61.4583 64.5833 62.2396C63.1944 63.0208 61.8381 63.5851 60.5143 63.9323C59.1905 64.2795 57.704 64.5399 56.0547 64.7135C57.5738 66.059 58.3333 68.1207 58.3333 70.8984C58.3333 72.6345 58.3225 74.566 58.3008 76.6927C58.2791 78.8194 58.2682 79.9262 58.2682 80.013C58.2682 80.5339 58.4527 80.9679 58.8216 81.3151C59.1905 81.6623 59.7656 81.7708 60.5469 81.6406C67.2309 79.3837 72.6997 75.3581 76.9531 69.5638C81.2066 63.7695 83.3333 57.2483 83.3333 50ZM100 18.75V81.25C100 86.4149 98.1662 90.8312 94.4987 94.4987C90.8312 98.1662 86.4149 100 81.25 100H18.75C13.5851 100 9.16884 98.1662 5.5013 94.4987C1.83377 90.8312 0 86.4149 0 81.25V18.75C0 13.5851 1.83377 9.16884 5.5013 5.5013C9.16884 1.83377 13.5851 0 18.75 0H81.25C86.4149 0 90.8312 1.83377 94.4987 5.5013C98.1662 9.16884 100 13.5851 100 18.75Z" fill="white"/>

<g id="JS-iconSvg">
<path d="M2.25488 0H117.745V120H2.25488V0Z" fill="#F7DF1E"/>
<path d="M32.6203 100.28L41.4584 94.7229C43.1635 97.8641 44.7145 100.522 48.435 100.522C52.0012 100.522 54.2496 99.0723 54.2496 93.4342V55.0913H65.1028V93.5936C65.1028 105.274 58.5136 110.59 48.9002 110.59C40.2181 110.59 35.1783 105.918 32.6201 100.28" fill="#0F1624"/>
<path d="M71 99.0724L79.837 93.756C82.1633 97.7035 85.1868 100.603 90.5357 100.603C95.0326 100.603 97.9003 98.2669 97.9003 95.0448C97.9003 91.1783 94.9545 89.8088 89.9929 87.5541L87.2803 86.345C79.4499 82.8819 74.2555 78.5322 74.2555 69.3492C74.2555 60.8913 80.4574 54.4469 90.1483 54.4469C97.048 54.4469 102.01 56.9442 105.575 63.469L97.125 69.1073C95.2644 65.6438 93.2493 64.2747 90.1485 64.2747C86.9699 64.2747 84.9542 66.369 84.9542 69.1073C84.9542 72.4905 86.9699 73.8602 91.6209 75.9547L94.334 77.1629C103.56 81.2713 108.754 85.4595 108.754 94.8836C108.754 105.034 101.079 110.591 90.7685 110.591C80.6904 110.591 74.1782 105.597 71.0002 99.0724" fill="#0F1624"/>
</g>

<g id="TS-iconSvg">
<g id="tyoescruipt">
<path id="Vector" d="M0 60V120H60H120V60V0H60H0V60Z" fill="#007ACC"/>
<path id="Vector_2" d="M26.5375 60.3979L26.4994 65.3122H34.309H42.1185L42.1185 87.5026V109.693H47.6423H53.1661V87.5026L53.1661 65.3122H60.9756H68.7852V60.4931C68.7852 57.8264 68.728 55.5979 68.6518 55.5407C68.5947 55.4645 59.0899 55.4264 47.5661 55.4455L26.5947 55.5026L26.5375 60.3979Z" fill="white"/>
<path id="Vector_3" d="M96.8265 55.3636C99.8741 56.1255 102.198 57.4779 104.331 59.6874C105.436 60.8684 107.074 63.0208 107.207 63.535C107.246 63.6874 102.026 67.1922 98.8646 69.1541C98.7503 69.2303 98.2931 68.7351 97.7789 67.9731C96.236 65.7255 94.6169 64.7541 92.1408 64.5827C88.5027 64.335 86.1598 66.2398 86.1789 69.4208C86.1789 70.3541 86.3122 70.9065 86.6931 71.6684C87.4931 73.3255 88.9789 74.316 93.6455 76.3351C102.236 80.0303 105.912 82.4684 108.198 85.935C110.75 89.8017 111.322 95.9731 109.588 100.564C107.684 105.554 102.96 108.945 96.3122 110.068C94.255 110.43 89.3789 110.373 87.1693 109.973C82.3503 109.116 77.7789 106.735 74.9598 103.611C73.855 102.392 71.7027 99.2112 71.836 98.9827C71.8931 98.9065 72.3884 98.6017 72.9408 98.2779C73.4741 97.9731 75.4931 96.8112 77.3979 95.7065L80.8455 93.7065L81.5693 94.7731C82.5789 96.316 84.7884 98.4303 86.1217 99.135C89.9503 101.154 95.2074 100.868 97.7979 98.5446C98.9027 97.535 99.3598 96.4874 99.3598 94.9446C99.3598 93.5541 99.1884 92.9446 98.4646 91.897C97.5312 90.5636 95.6265 89.4398 90.2169 87.097C84.0265 84.4303 81.3598 82.7731 78.9217 80.1446C77.5122 78.6208 76.1789 76.1827 75.6265 74.1446C75.1693 72.4493 75.055 68.2017 75.4169 66.4874C76.6931 60.5065 81.2074 56.335 87.7217 55.097C89.836 54.697 94.7503 54.8493 96.8265 55.3636Z" fill="white"/>
</g>
</g>

<g id="Mongo-iconSvg">
<g id="mongodb">
<path id="Vector" d="M84.7407 47.7544C78.7204 19.869 66.1563 12.4436 62.9681 7.19463C61.2353 4.33931 59.4685 0 59.4685 0C59.2957 2.47333 58.9895 4.03976 56.9792 5.91949C52.9535 9.68719 35.8453 24.3238 34.4083 56.0098C33.0681 85.5523 55.0868 103.772 58.0132 105.655C60.2485 106.809 62.9865 105.677 64.2952 104.619C74.9067 96.9681 89.4235 76.5686 84.7276 47.7544" fill="#10AA50"/>
<path id="Vector_2" d="M60.3802 89.9189C59.8279 97.2345 59.43 101.491 58.0244 105.663C58.0244 105.663 58.951 112.624 59.5949 120H61.8905C62.4385 114.805 63.2749 109.648 64.3955 104.556C61.422 103.025 60.4927 96.3358 60.3802 89.9189Z" fill="#B8C4C2"/>
<path id="Vector_3" d="M64.3941 104.561C61.3891 103.104 60.5201 96.2809 60.3866 89.9189C61.127 79.43 61.341 68.9075 61.0279 58.395C60.8709 52.8795 61.1064 7.30163 59.7349 0.62915C60.2898 1.93452 61.6299 5.00144 62.9701 7.19171C66.1714 12.4434 78.725 19.8689 84.7401 47.757C89.428 76.497 74.9976 96.8607 64.3941 104.561Z" fill="#12924F"/>
</g>
</g>

<g id="React-JS-iconSvg">
<g id="react">
<path id="Vector" d="M0 59.7974C0 69.273 8.84919 78.1189 22.8007 83.1049C20.0147 97.7701 22.3014 109.59 29.9391 114.196C37.79 118.93 49.4858 115.653 60.5867 105.507C71.4076 115.243 82.3439 119.075 89.9746 114.456C97.8178 109.709 100.203 97.087 97.3404 81.964C111.872 76.9405 120 69.3977 120 59.7974C120 50.5414 111.134 42.5338 97.3711 37.5796C100.453 21.8316 97.8416 10.2984 89.8877 5.50237C82.2193 0.878721 71.156 4.9087 60.176 14.9001C48.7532 4.29502 37.799 1.05714 29.8528 5.86712C22.1918 10.5039 20.0057 22.5388 22.8007 37.4756C9.32028 42.39 0 50.5784 0 59.7974Z" fill="#0F1624"/>
<path id="Vector_2" d="M94.4565 42.4992C93.351 42.1013 92.2054 41.7248 91.0259 41.3688C91.2198 40.5415 91.3977 39.7249 91.5559 38.9222C94.1528 25.7415 92.4549 15.1231 86.6569 11.627C81.0973 8.27476 72.005 11.77 62.8223 20.1259C61.9393 20.9294 61.0538 21.7801 60.1687 22.6717C59.5789 22.0818 58.9901 21.5118 58.4028 20.9665C48.779 12.0318 39.1327 8.26663 33.3404 11.7728C27.7861 15.1348 26.1413 25.1171 28.4789 37.6085C28.7046 38.8151 28.9685 40.0472 29.2669 41.3C27.9016 41.7052 26.5836 42.1372 25.3226 42.5967C14.0397 46.7099 6.83398 53.1561 6.83398 59.8425C6.83398 66.7483 14.5693 73.675 26.3213 77.875C27.2487 78.2064 28.211 78.5198 29.2028 78.8173C28.8808 80.1722 28.6009 81.4999 28.3658 82.7949C26.1369 95.0696 27.8776 104.816 33.417 108.157C39.1388 111.607 48.7415 108.061 58.0921 99.5143C58.8311 98.8387 59.5729 98.1223 60.3159 97.3714C61.279 98.3411 62.2405 99.2588 63.197 100.12C72.2541 108.269 81.1995 111.56 86.7339 108.21C92.4499 104.75 94.3076 94.2798 91.8958 81.5412C91.7116 80.5683 91.4973 79.5744 91.2566 78.5628C91.9309 78.3544 92.593 78.1392 93.2385 77.9154C105.456 73.6829 113.405 66.8406 113.405 59.8425C113.405 53.1319 105.967 46.6422 94.4565 42.4992Z" fill="#53C1DE"/>
<path id="Vector_3" d="M91.8055 73.3972C91.2227 73.599 90.6248 73.7939 90.0155 73.9829C88.6668 69.5184 86.8465 64.771 84.6189 59.8661C86.7446 55.078 88.4946 50.3913 89.8055 45.9557C90.8957 46.2855 91.9538 46.6334 92.9734 47.0006C102.835 50.5504 108.851 55.7988 108.851 59.8429C108.851 64.1505 102.354 69.7425 91.8055 73.3972ZM87.4285 82.466C88.4949 88.0988 88.6473 93.1916 87.9408 97.1728C87.3061 100.75 86.0297 103.135 84.4514 104.09C81.0929 106.123 73.9106 103.481 66.1648 96.5115C65.2769 95.7125 64.3825 94.8595 63.4852 93.9566C66.4881 90.5226 69.4893 86.5305 72.4183 82.0969C77.5702 81.6189 82.4376 80.8374 86.8516 79.7705C87.069 80.6874 87.2621 81.5867 87.4285 82.466ZM43.1651 103.739C39.8838 104.951 37.2704 104.986 35.6906 104.033C32.329 102.006 30.9316 94.1803 32.8378 83.6831C33.0561 82.4809 33.316 81.246 33.6155 79.9837C37.9812 80.9931 42.8129 81.7194 47.9771 82.1572C50.9259 86.4956 54.0138 90.4834 57.1255 93.975C56.4457 94.6613 55.7685 95.3147 55.095 95.9303C50.9603 99.7094 46.8168 102.391 43.1651 103.739ZM27.7925 73.3709C22.596 71.5137 18.3046 69.1001 15.363 66.4662C12.7198 64.0994 11.3853 61.7496 11.3853 59.8429C11.3853 55.7853 17.1707 50.6099 26.8199 47.0922C27.9907 46.6654 29.2163 46.2631 30.4882 45.8853C31.8218 50.421 33.5712 55.1633 35.6823 59.9587C33.5438 64.8253 31.7696 69.6431 30.423 74.2321C29.5163 73.9595 28.6378 73.6727 27.7925 73.3709ZM32.9456 36.6947C30.9428 25.9923 32.2729 17.9189 35.6201 15.893C39.1854 13.7348 47.0693 16.8119 55.3786 24.5266C55.9098 25.0197 56.443 25.5358 56.9778 26.0697C53.8814 29.5461 50.8218 33.5039 47.8992 37.8167C42.8871 38.3025 38.0893 39.0828 33.6782 40.1277C33.4008 38.9612 33.1552 37.8152 32.9456 36.6947ZM78.9154 48.5635C77.8608 46.659 76.7783 44.7995 75.6746 42.9908C79.0749 43.4402 82.3327 44.0369 85.3921 44.767C84.4736 47.8449 83.3288 51.0631 81.9812 54.3622C81.0145 52.4432 79.9921 50.5083 78.9154 48.5635ZM60.169 29.4717C62.2689 31.8505 64.3719 34.5063 66.4403 37.3879C64.3559 37.285 62.2458 37.2314 60.1181 37.2314C58.0106 37.2314 55.916 37.2838 53.8446 37.3849C55.9151 34.5301 58.0363 31.8779 60.169 29.4717ZM41.3025 48.5965C40.2492 50.5063 39.2457 52.4307 38.2942 54.3586C36.9684 51.071 35.8342 47.8382 34.9077 44.7166C37.9484 44.0051 41.1908 43.4234 44.5695 42.9825C43.4503 44.8078 42.3588 46.681 41.3025 48.5961V48.5965ZM44.6668 77.0428C41.176 76.6356 37.8848 76.0838 34.845 75.392C35.7862 72.2147 36.9454 68.9128 38.2993 65.5544C39.2533 67.481 40.2607 69.4061 41.3206 71.3202H41.3208C42.4003 73.2701 43.5187 75.1802 44.6668 77.0428ZM60.2949 90.5496C58.1372 88.1153 55.9849 85.4226 53.8829 82.5261C55.9234 82.6098 58.0038 82.6527 60.1181 82.6527C62.2903 82.6527 64.4377 82.6015 66.5513 82.5031C64.476 85.4517 62.3806 88.1486 60.2949 90.5496ZM82.0246 65.3833C83.4491 68.778 84.6498 72.0626 85.6032 75.1857C82.5133 75.9228 79.1771 76.5164 75.6621 76.9575C76.7684 75.1244 77.8605 73.233 78.9336 71.2874C80.0192 69.319 81.05 67.3477 82.0246 65.3833ZM74.99 68.9093C73.3241 71.9295 71.6138 74.8126 69.8776 77.5341C66.7152 77.7706 63.448 77.8923 60.1181 77.8923C56.8017 77.8923 53.5758 77.7846 50.4693 77.5738C48.6631 74.8166 46.9156 71.9249 45.2603 68.9352H45.2607C43.6098 65.9537 42.0903 62.947 40.7135 59.9571C42.09 56.9603 43.6054 53.9502 45.2469 50.974L45.2465 50.9746C46.8923 47.9905 48.6244 45.1129 50.4139 42.3729C53.5834 42.1224 56.8334 41.9917 60.118 41.9917H60.1181C63.4175 41.9917 66.6717 42.1234 69.8402 42.3761C71.6024 45.096 73.3228 47.9643 74.975 50.9488C76.646 53.9669 78.1811 56.9569 79.5692 59.8895C78.1852 62.8724 76.6536 65.8926 74.99 68.9093ZM84.3816 15.7513C87.9503 17.9032 89.3381 26.5816 87.0959 37.9617C86.9529 38.6879 86.7919 39.4275 86.617 40.1771C82.1956 39.1104 77.3944 38.3166 72.3677 37.8235C69.4394 33.4632 66.4048 29.4993 63.3589 26.0675C64.1778 25.2438 64.9956 24.4583 65.8099 23.7171C73.6777 16.5578 81.0312 13.7312 84.3816 15.7513Z" fill="#0F1624"/>
<path id="Vector_4" d="M60.1185 49.8923C65.3741 49.8923 69.6349 54.3472 69.6349 59.8428C69.6349 65.3381 65.3741 69.7932 60.1185 69.7932C54.8628 69.7932 50.6021 65.3381 50.6021 59.8428C50.6021 54.3472 54.8628 49.8923 60.1185 49.8923Z" fill="#53C1DE"/>
</g>
</g>

<g id="React-Native-iconSvg" clip-path="url(#clip0_1_2463)">
<g id="Group">
<path id="Vector" d="M59.9999 63.6073C65.9173 63.6073 70.7142 58.8103 70.7142 52.893C70.7142 46.9757 65.9173 42.1787 59.9999 42.1787C54.0826 42.1787 49.2856 46.9757 49.2856 52.893C49.2856 58.8103 54.0826 63.6073 59.9999 63.6073Z" fill="#F5DE19"/>
<path id="Vector_2" d="M60 77.4583C47.122 77.7698 34.2763 76.0339 21.9429 72.3155C16.2455 70.5094 10.9317 67.6643 6.27 63.924C4.49113 62.6463 3.00974 60.9988 1.92747 59.0946C0.845197 57.1905 0.18767 55.0748 0 52.8926C0 45.8083 7.78286 38.8655 20.82 34.3226C33.4831 30.2972 46.714 28.3463 60 28.5455C73.1087 28.3623 86.1623 30.2779 98.6657 34.2197C104.153 35.969 109.286 38.6765 113.829 42.2169C115.577 43.4351 117.036 45.0228 118.103 46.8677C119.169 48.7126 119.817 50.7695 120 52.8926C120 60.2555 111.3 67.7169 97.2857 72.354C85.1911 75.9513 72.6164 77.6728 60 77.4583ZM60 33.6712C47.2891 33.5013 34.6321 35.3559 22.5043 39.1655C10.5043 43.3526 5.12571 49.0783 5.12571 52.8797C5.12571 56.8569 10.9071 63.1097 23.6014 67.4512C35.4003 70.9905 47.6855 72.6381 60 72.3326C72.0703 72.5484 84.1025 70.9152 95.6786 67.4897C108.857 63.1226 114.857 56.8612 114.857 52.8926C114.641 51.5307 114.145 50.2285 113.4 49.0681C112.655 47.9078 111.677 46.9145 110.529 46.1512C106.465 43.0104 101.879 40.6108 96.9814 39.0626C85.0201 35.3073 72.5356 33.4872 60 33.6712Z" fill="#F5DE19"/>
<path id="Vector_3" d="M35.6553 106.331C33.656 106.377 31.6803 105.892 29.9295 104.925C23.7924 101.385 21.6667 91.1767 24.2424 77.6124C27.0823 64.6313 32.003 52.1951 38.8138 40.7852C45.2027 29.3385 53.3818 18.9877 63.041 10.1252C67.2974 6.24538 72.2076 3.1504 77.5438 0.983791C79.4739 0.0792446 81.5794 -0.389648 83.711 -0.389648C85.8425 -0.389648 87.948 0.0792446 89.8781 0.983791C96.2595 4.66093 98.3724 15.9238 95.3938 30.3795C92.4662 42.6562 87.6734 54.4114 81.1824 65.2352C75.0184 76.5468 67.0969 86.8074 57.7138 95.6338C53.3029 99.6657 48.1838 102.846 42.6153 105.015C40.3859 105.843 38.0328 106.287 35.6553 106.331ZM43.2538 43.3309C36.7571 54.2566 32.041 66.1468 29.2824 78.5552C26.9124 91.0481 29.1881 98.5609 32.4967 100.472C35.9253 102.457 44.2481 100.575 54.3538 91.7467C63.3111 83.2907 70.872 73.4689 76.7553 62.6466C82.9736 52.2989 87.5711 41.0601 90.3881 29.3209C93.191 15.7138 90.7695 7.38236 87.3324 5.40236C86.0442 4.90876 84.6675 4.6878 83.2895 4.75346C81.9115 4.81911 80.5622 5.16995 79.3267 5.78379C74.5767 7.74385 70.2098 10.5265 66.4267 14.0038C57.1981 22.4929 49.3854 32.4021 43.2838 43.3566L43.2538 43.3309Z" fill="#F5DE19"/>
<path id="Vector_4" d="M84.3262 106.387C78.5191 106.387 71.1434 102.872 63.4634 96.2681C53.6349 87.325 45.3175 76.8512 38.8334 65.2524C32.1079 53.9996 27.2262 41.7433 24.3734 28.9481C23.1361 23.3187 22.9068 17.5146 23.6962 11.8052C23.8787 9.68726 24.5236 7.63511 25.5855 5.7935C26.6474 3.95188 28.1003 2.36565 29.8419 1.14666C36.2148 -2.54334 47.0276 1.24951 58.0634 11.0467C67.2373 19.7132 75.0279 29.7354 81.1634 40.7638C87.8846 51.7539 92.8175 63.7418 95.7776 76.2795C97.0681 82.1154 97.2672 88.1397 96.3648 94.0481C96.1501 96.227 95.4667 98.3337 94.3615 100.224C93.2564 102.114 91.7555 103.742 89.9619 104.998C88.2398 105.953 86.2947 106.432 84.3262 106.387ZM43.2691 62.6724C49.4895 73.7571 57.4346 83.7811 66.8062 92.3681C76.4448 100.661 84.0905 102.444 87.3776 100.511C90.8062 98.5181 93.3348 90.3838 90.7291 77.2224C87.8743 65.2521 83.1429 53.8091 76.7105 43.3181C70.8555 32.7629 63.4194 23.1661 54.6605 14.8609C44.2719 5.63808 35.8462 3.57666 32.4134 5.56523C31.3434 6.43472 30.4654 7.51661 29.8347 8.7426C29.204 9.96858 28.8343 11.312 28.7491 12.6881C28.0677 17.7799 28.2896 22.952 29.4048 27.9667C32.1489 40.203 36.8308 51.9221 43.2734 62.6809L43.2691 62.6724Z" fill="#F5DE19"/>
</g>
</g>

<g id="Styled-components-iconSvg" clip-path="url(#clip0_1_2427)">
<g id="Group">
<path id="Vector" d="M68.7673 118.279C68.9473 117.872 69.4015 117.589 69.7315 117.246C74.7666 111.967 79.8446 106.735 84.8111 101.391C86.3653 99.9558 87.5662 98.1804 88.32 96.2036C89.0739 94.2269 89.3601 92.1026 89.1563 89.9968C89.0004 89.0951 88.7958 88.2025 88.5435 87.3229C87.1894 88.6084 85.9296 89.7783 84.6611 90.9567C82.6899 92.7908 80.7273 94.6334 78.739 96.4461C77.5665 97.6415 76.059 98.4531 74.4156 98.7737C72.7721 99.0943 71.0701 98.9087 69.5344 98.2416C67.9797 97.6705 66.627 96.6553 65.6443 95.3221C64.6616 93.9889 64.092 92.3965 64.0064 90.7425C63.9604 90.5297 63.8988 90.3206 63.8222 90.1168C62.3095 91.4024 60.8611 92.5851 59.4256 93.8021L29.5877 119.085C29.382 119.261 29.1591 119.479 28.9663 119.65H68.7459L68.6859 119.612C68.4716 119.462 68.583 118.673 68.7673 118.279Z" fill="#FFCEBF"/>
<path id="Vector_2" d="M27.1434 118.279C27.4972 117.818 27.9243 117.418 28.4075 117.096L69.6997 82.0642C72.5165 79.6731 75.3205 77.2691 78.1116 74.8522C78.4565 74.6118 78.7267 74.2791 78.8915 73.8924C79.5591 70.9831 79.6537 67.9717 79.17 65.0263C78.7415 65.3262 78.5101 65.4548 78.313 65.6648C74.932 68.6901 71.5681 71.7412 68.1699 74.7494C67.0442 75.8824 65.5882 76.6292 64.0113 76.8825C62.4344 77.1359 60.8177 76.8826 59.3938 76.1592C57.9411 75.4734 56.7253 74.3709 55.9012 72.992C55.077 71.6131 54.6818 70.0201 54.7658 68.4159V67.0275C54.1444 67.4817 53.6902 67.7859 53.266 68.1287C36.7394 81.3615 20.2156 94.5842 3.69472 107.797C2.94909 108.393 2.05777 109.721 1.08074 108.431C0.103713 107.141 1.59068 106.61 2.34059 106.01C19.9528 91.8774 37.5736 77.7576 55.2029 63.6507C58.074 61.3496 58.2625 60.3854 56.3942 56.7301L55.28 57.7757C52.2247 60.6168 49.135 63.4193 46.1268 66.3075C44.8929 67.4978 43.3474 68.3148 41.6689 68.6641C39.9904 69.0135 38.2473 68.8809 36.6409 68.2818C35.0345 67.6827 33.6304 66.6415 32.5905 65.2784C31.5507 63.9153 30.9176 62.2858 30.7644 60.5782C30.1944 61.0067 29.7016 61.3196 29.2345 61.6838L3.09479 81.9443C2.64395 82.3864 2.1298 82.7591 1.56925 83.0498C1.14619 83.1777 0.69189 83.155 0.283691 82.9856V119.671H27.0919C26.9923 119.451 26.945 119.21 26.954 118.969C26.9629 118.727 27.0277 118.491 27.1434 118.279Z" fill="#FFCEBF"/>
<path id="Vector_3" d="M99.5652 1.82096C98.8367 4.20782 98.1297 6.59897 97.4912 9.01154C96.9014 10.7164 96.97 12.5802 97.6836 14.2371C98.3971 15.8941 99.704 17.2246 101.348 17.9676C106.376 20.6107 112.042 21.798 117.709 21.3958V2.22806C117.646 1.80781 117.669 1.37914 117.777 0.968207C117.897 0.73576 118.049 0.520916 118.227 0.329712H99.5481C99.8352 0.663958 99.7366 1.25103 99.5652 1.82096Z" fill="#FF6196"/>
<path id="Vector_4" d="M62.0512 42.9976C61.9624 45.137 61.214 47.1966 59.9086 48.894C55.2421 54.9179 49.883 60.3719 43.9419 65.1435C42.9839 66.0304 41.7695 66.591 40.4731 66.745C39.1767 66.8989 37.8648 66.6383 36.7256 66.0005C35.5918 65.5161 34.6358 64.6925 33.989 63.6428C33.3421 62.5932 33.0362 61.369 33.1132 60.1384C33.2505 58.627 33.878 57.202 34.9002 56.0803C41.5437 49.7455 48.7416 44.019 56.4076 38.9695C56.9097 38.5758 57.5228 38.3499 58.1603 38.3237C58.7978 38.2976 59.4274 38.4725 59.96 38.8238C60.6601 39.2585 61.2261 39.8786 61.5952 40.6153C61.9643 41.352 62.1222 42.1766 62.0512 42.9976Z" fill="#FF87AF"/>
<path id="Vector_5" d="M56.9126 68.97C56.8131 68.0228 56.9347 67.0654 57.2678 66.1731C57.6009 65.2809 58.1365 64.478 58.8324 63.8277C65.3372 57.8281 72.3163 52.3638 79.7013 47.4883C79.9241 47.3468 80.1298 47.2054 80.3741 47.0597C81.0192 46.594 81.8008 46.356 82.5959 46.3832C83.3911 46.4103 84.1546 46.7011 84.7664 47.2097C85.3584 47.7112 85.7772 48.3865 85.9634 49.1396C86.1496 49.8928 86.0936 50.6854 85.8034 51.4049C84.8691 54.5168 83.1448 57.3337 80.7983 59.5811C76.0329 64.2758 71.1753 68.8762 66.2286 73.3795C65.4836 74.1456 64.5051 74.6422 63.4469 74.7911C62.3888 74.9401 61.3111 74.7329 60.3836 74.2022C59.409 73.6958 58.5791 72.9499 57.9719 72.0347C57.3648 71.1194 57.0002 70.0648 56.9126 68.97Z" fill="#FF87AF"/>
<path id="Vector_6" d="M87.8344 71.8015C86.6346 73.0871 85.4004 74.3126 84.2477 75.6282C83.9011 76.1367 83.6136 76.683 83.3907 77.2566C84.0249 77.4451 84.7662 77.9422 85.2804 77.7665C87.8987 76.888 90.4527 75.8339 93.3281 74.724C92.7024 76.1638 92.231 77.4922 91.5668 78.7092C88.8305 83.3078 85.4038 87.4587 81.4066 91.0164C79.8868 92.4819 78.3084 93.8832 76.6715 95.2201C75.8046 95.9395 74.7622 96.4157 73.6509 96.6001C72.5396 96.7844 71.3992 96.6702 70.3465 96.2692C69.2938 95.8681 68.3665 95.1947 67.6595 94.3176C66.9525 93.4406 66.4912 92.3916 66.3227 91.2778C66.254 90.6585 66.3087 90.0317 66.4838 89.4337C66.6589 88.8357 66.9507 88.2784 67.3426 87.7939C73.174 81.4614 79.8384 75.9503 87.1531 71.4115C87.242 71.3771 87.3363 71.3582 87.4316 71.3558L87.8344 71.8015Z" fill="#FF87AF"/>
<path id="Vector_7" d="M97.6724 54.7335L105.004 22.1659L110.147 23.37L107.494 31.4305C105.017 38.9296 102.51 46.4287 100.093 53.9364C99.6221 55.3248 99.0051 55.5819 97.6724 54.7335Z" fill="#FF6196"/>
<path id="Vector_8" d="M89.3857 73.8885C90.1614 70.9274 90.9327 68.1892 91.5841 65.421C92.2189 62.7364 93.4263 60.2207 95.1236 58.0461C96.1649 56.6791 97.3348 57.2234 98.5304 57.519C99.636 57.789 99.9145 58.5989 99.9616 59.6616C100.136 62.6005 99.241 65.5031 97.4419 67.8335C95.3002 70.4887 92.5317 72.5695 89.3857 73.8885Z" fill="#FF6196"/>
<path id="Vector_9" d="M119.944 3.83936C120.008 2.88498 119.983 1.92674 119.871 0.976845C119.783 0.711516 119.607 0.483621 119.374 0.329779C119.184 0.175101 118.961 0.0652523 118.723 0.00838844C118.585 -0.0173228 118.393 0.124089 118.208 0.325493C118.03 0.516698 117.878 0.731542 117.758 0.96399C117.65 1.37492 117.627 1.80359 117.69 2.22384V21.3873C112.023 21.7895 106.357 20.6022 101.329 17.9591C99.685 17.2161 98.3781 15.8856 97.6646 14.2286C96.951 12.5717 96.8824 10.7079 97.4722 9.00304C98.1107 6.59046 98.8178 4.19932 99.5462 1.81246C99.7177 1.24253 99.8162 0.655454 99.5462 0.321208C99.3961 0.158494 99.1888 0.0602123 98.9677 0.0469556C98.6847 0.0500088 98.4105 0.146413 98.1878 0.321208C97.8674 0.512888 97.6121 0.796593 97.4551 1.1354C96.598 3.70652 95.8438 6.30336 95.1882 8.9259C94.9407 9.95936 94.874 11.0279 94.9911 12.0841C95.1569 13.9952 95.8676 15.8186 97.0389 17.3377C98.2102 18.8569 99.7928 20.0081 101.599 20.6545C102.409 20.993 102.884 21.3273 102.657 22.3943C102.344 23.7484 102.04 25.1026 101.732 26.461C99.632 35.6656 97.5436 44.8745 95.4667 54.0877C95.4082 54.4985 95.2275 54.8822 94.9482 55.189C93.5793 56.2771 92.4291 57.6148 91.5586 59.1314C90.4493 61.1327 89.6817 63.3052 89.2875 65.5592C89.2118 66.2782 88.952 66.9655 88.5331 67.5548C88.1143 68.144 87.5505 68.6153 86.8963 68.9231C85.1094 69.8273 83.4682 70.9971 81.4841 72.2141C81.6164 69.8282 81.5906 67.4361 81.407 65.0535C81.256 64.3206 81.288 63.5618 81.5003 62.8442C81.7126 62.1267 82.0985 61.4725 82.624 60.9397C85.2375 58.3506 87.1005 55.1015 88.0148 51.538C88.2878 50.712 88.3627 49.8333 88.2333 48.9729C88.104 48.1126 87.774 47.2948 87.27 46.5856C86.7661 45.8764 86.1023 45.2957 85.3325 44.8905C84.5626 44.4853 83.7081 44.267 82.8382 44.2531C81.4298 44.2374 80.047 44.6304 78.8573 45.3844C74.7683 48.1767 70.7504 51.0715 66.8073 54.0663C64.4633 55.8318 62.2564 57.7858 59.9852 59.637C59.8873 59.5319 59.8025 59.4154 59.7324 59.2899C59.689 58.9744 59.604 58.6661 59.4796 58.3729C57.5812 55.4418 58.8968 53.3121 60.958 51.1223C63.1053 48.8714 64.2919 45.8727 64.2661 42.7619C64.3327 41.1769 63.8363 39.6194 62.8649 38.3653C62.3474 37.7286 61.7096 37.2001 60.988 36.8097C59.9629 36.2487 58.7908 36.0145 57.6289 36.1386C56.467 36.2627 55.3708 36.7391 54.4873 37.5039L53.2917 38.361C50.5621 40.315 47.7981 42.2177 45.1713 44.3089C41.3364 47.3705 37.5841 50.5341 33.9183 53.7963C32.2042 55.309 30.953 57.3744 29.1746 58.78C19.9014 66.1034 10.5297 73.294 1.1922 80.5317C0.871132 80.7232 0.575909 80.9551 0.313735 81.2216C0.286745 81.2606 0.263774 81.3023 0.245172 81.3459C0.0480521 81.8044 -0.119071 82.5629 0.112331 82.8414C0.169054 82.9019 0.23761 82.95 0.313735 82.9828C0.721934 83.1523 1.17623 83.175 1.5993 83.0471C2.15985 82.7563 2.67399 82.3837 3.12483 81.9415L29.2646 61.6811C29.7317 61.3168 30.2245 60.9869 30.7944 60.5755C30.9476 62.2831 31.5807 63.9125 32.6206 65.2757C33.6604 66.6388 35.0646 67.68 36.671 68.2791C38.2774 68.8782 40.0204 69.0107 41.6989 68.6614C43.3774 68.312 44.9229 67.4951 46.1569 66.3048C49.1565 63.4166 52.2547 60.6141 55.3101 57.773L56.4242 56.7274C58.2926 60.3827 58.104 61.3468 55.2329 63.648C37.5893 77.7663 19.9585 91.8875 2.34064 106.012C1.59073 106.611 0.108046 107.156 1.08079 108.433C2.05353 109.71 2.94914 108.394 3.69476 107.798C20.2242 94.5972 36.7423 81.3787 53.2489 68.1432C53.6774 67.8003 54.1273 67.4961 54.7487 67.0419V68.4303C54.6647 70.0345 55.0599 71.6275 55.8841 73.0064C56.7082 74.3853 57.924 75.4879 59.3767 76.1736C60.8007 76.897 62.4173 77.1503 63.9942 76.897C65.5711 76.6436 67.0271 75.8968 68.1528 74.7638C71.551 71.7642 74.9149 68.7045 78.2959 65.6792C78.5102 65.4863 78.7587 65.3406 79.153 65.0407C79.6367 67.9861 79.542 70.9975 78.8744 73.9068C78.7096 74.2936 78.4394 74.6262 78.0945 74.8667C75.3005 77.2807 72.4966 79.6847 69.6826 82.0787L28.4075 117.115C27.9243 117.437 27.4972 117.836 27.1434 118.297C27.0305 118.507 26.9672 118.741 26.9582 118.979C26.9493 119.217 26.9951 119.455 27.092 119.673C27.2856 119.818 27.5094 119.917 27.7468 119.964C27.9842 120.011 28.2291 120.004 28.4633 119.943C28.648 119.889 28.8181 119.794 28.9603 119.664C29.1746 119.493 29.3889 119.274 29.5817 119.099L59.4196 93.8158C60.8551 92.5988 62.3035 91.399 63.8162 90.1306C63.8928 90.3343 63.9544 90.5434 64.0005 90.7562C64.0861 92.4102 64.6556 94.0027 65.6383 95.3358C66.6211 96.669 67.9737 97.6842 69.5284 98.2553C71.0641 98.9225 72.7662 99.108 74.4096 98.7874C76.053 98.4669 77.5606 97.6552 78.733 96.4598C80.7213 94.6472 82.684 92.8045 84.6552 90.9705C85.9407 89.792 87.1834 88.6093 88.5376 87.3366C88.7898 88.2162 88.9944 89.1089 89.1503 90.0106C89.3473 92.1094 89.0578 94.2253 88.3042 96.1941C87.5506 98.1628 86.3532 99.9313 84.8051 101.362C79.8386 106.71 74.7606 111.942 69.7255 117.217C69.3955 117.56 68.9413 117.843 68.7613 118.25C68.5813 118.657 68.4657 119.454 68.6799 119.626L68.7399 119.664C69.1892 119.883 69.6945 119.959 70.1883 119.883C70.3267 119.854 70.45 119.777 70.5354 119.664C70.6554 119.54 70.7711 119.386 70.8868 119.27C74.9663 115.053 79.0672 110.858 83.1168 106.611C84.7513 104.955 86.288 103.205 87.7191 101.371C89.5851 99.3049 90.8224 96.7492 91.2855 94.0042C91.7486 91.2591 91.4181 88.439 90.3331 85.8754C90.2164 85.3037 90.3304 84.7092 90.6502 84.2213C90.9287 83.7413 91.2372 83.2742 91.5543 82.8114C92.569 81.494 93.4141 80.0544 94.0698 78.5262C95.3368 74.7758 97.2817 71.2898 99.8076 68.2417C100.969 66.7695 101.768 65.0448 102.14 63.207C102.512 61.3692 102.447 59.4696 101.95 57.6616C101.775 56.9741 101.775 56.2535 101.95 55.5661C104.119 48.8512 106.351 42.1577 108.562 35.4599L111.519 26.4867L112.432 23.7142C114.377 23.7142 116.211 23.6756 118.037 23.7142C119.554 23.757 120.017 23.0457 120 21.5715C119.91 15.658 119.944 9.74866 119.944 3.83936ZM43.9371 65.1435C42.9791 66.0304 41.7647 66.591 40.4683 66.745C39.1719 66.8989 37.86 66.6383 36.7208 66.0006C35.587 65.5162 34.631 64.6925 33.9842 63.6429C33.3373 62.5932 33.0314 61.369 33.1084 60.1384C33.2457 58.6271 33.8732 57.202 34.8953 56.0803C41.5388 49.7455 48.7368 44.019 56.4028 38.9695C56.8212 38.6737 57.2972 38.4693 57.7998 38.3696C58.1369 38.3074 58.4825 38.3074 58.8196 38.3696C59.2234 38.4482 59.6086 38.6023 59.9552 38.8238C60.656 39.2588 61.2224 39.8796 61.5916 40.6171C61.9607 41.3547 62.1182 42.1802 62.0464 43.0019C61.9576 45.1413 61.2092 47.2009 59.9038 48.8983C55.237 54.9207 49.878 60.3733 43.9371 65.1435ZM66.2202 73.4097C65.4752 74.1758 64.4966 74.6724 63.4385 74.8213C62.3803 74.9703 61.3027 74.7631 60.3752 74.2324C59.3988 73.7249 58.5678 72.977 57.9605 72.0593C57.3533 71.1416 56.9897 70.0844 56.9042 68.9874C56.8047 68.0401 56.9263 67.0828 57.2594 66.1905C57.5925 65.2982 58.1281 64.4954 58.8239 63.8451C65.3288 57.8454 72.3078 52.3811 79.6929 47.5056C79.9157 47.3642 80.1214 47.2228 80.3657 47.0771C81.0107 46.6114 81.7923 46.3734 82.5875 46.4005C83.3826 46.4277 84.1462 46.7185 84.758 47.2271C85.35 47.7285 85.7688 48.4038 85.955 49.157C86.1412 49.9101 86.0852 50.7028 85.795 51.4223C84.8607 54.5342 83.1364 57.351 80.7899 59.5985C76.0633 64.3208 71.1482 68.8674 66.2288 73.3925L66.2202 73.4097ZM91.5501 78.7276C88.8175 83.319 85.3967 87.4638 81.407 91.0176C79.8872 92.4831 78.3088 93.8844 76.6718 95.2214C75.8049 95.9408 74.7625 96.417 73.6512 96.6013C72.5399 96.7856 71.3996 96.6714 70.3469 96.2704C69.2942 95.8694 68.3669 95.1959 67.6599 94.3189C66.9529 93.4419 66.4915 92.3928 66.323 91.279C66.2543 90.6597 66.3091 90.0329 66.4842 89.435C66.6592 88.837 66.9511 88.2796 67.3429 87.7951C73.1743 81.4627 79.8387 75.9515 87.1534 71.4128C87.2424 71.3783 87.3366 71.3594 87.432 71.3571L87.8605 71.7856C86.6606 73.0712 85.4265 74.2967 84.2738 75.6123C83.9272 76.1208 83.6396 76.6671 83.4167 77.2407C84.0509 77.4292 84.7923 77.9263 85.3065 77.7506C87.3763 77.0564 89.4117 76.2508 91.5929 75.3937L93.3541 74.7081C92.6942 76.1651 92.2228 77.4935 91.5586 78.7105L91.5501 78.7276ZM97.4336 67.8646C95.8352 69.8996 93.8317 71.5806 91.5501 72.8012C90.8444 73.1954 90.1202 73.564 89.3775 73.9068C90.1402 70.9885 90.903 68.2846 91.5501 65.5506L91.5758 65.4392C92.2106 62.7546 93.418 60.2389 95.1153 58.0644C96.1566 56.6974 97.3265 57.2416 98.5221 57.5373C99.6277 57.8073 99.9062 58.6172 99.9533 59.6799C100.129 62.6162 99.2372 65.5171 97.4422 67.8475L97.4336 67.8646ZM107.461 31.4404C104.984 38.9395 102.477 46.4386 100.06 53.9463C99.6062 55.3561 98.9892 55.6132 97.6565 54.7648L104.011 26.5124L104.988 22.1758L110.131 23.3799L109.098 26.5124L107.461 31.4404Z" fill="#1F2626"/>
</g>
</g>

<g id="Redux-iconSvg" clip-path="url(#clip0_1_2440)">
<path id="Vector" d="M83.1473 82.6013C87.5756 82.1428 90.9352 78.3253 90.7823 73.7438C90.63 69.1627 86.812 65.4975 82.2309 65.4975H81.9258C77.1914 65.6503 73.5267 69.6207 73.6795 74.3546C73.8323 76.6453 74.7483 78.6305 76.1227 80.0049C70.9308 90.2368 62.9902 97.7194 51.0792 103.98C42.9858 108.256 34.5872 109.784 26.1886 108.715C19.3167 107.798 13.972 104.745 10.612 99.7046C5.72578 92.2219 5.26781 84.128 9.39093 76.0346C12.2925 70.2314 16.8731 65.9555 19.7747 63.8175C19.1639 61.8324 18.2475 58.4728 17.7895 56.0297C-4.35282 72.0643 -2.06204 93.7491 4.65703 103.98C9.69609 111.616 19.9275 116.35 31.2276 116.35C34.2816 116.35 37.3355 116.045 40.3898 115.282C59.9362 111.464 74.7487 99.8574 83.1473 82.6013ZM110.024 63.6652C98.4178 50.0738 81.315 42.5911 61.7686 42.5911H59.3255C57.9511 39.8424 55.0495 38.0096 51.8428 38.0096H51.5372C46.8037 38.1624 43.1391 42.1327 43.2914 46.8671C43.4442 51.4482 47.2617 55.1133 51.8428 55.1133H52.148C55.5075 54.9605 58.4091 52.8225 59.6306 49.921H62.3794C73.9852 49.921 84.9797 53.2805 94.9059 59.8472C102.541 64.8868 108.038 71.4535 111.092 79.3941C113.688 85.808 113.535 92.0691 110.787 97.4143C106.511 105.508 99.3342 109.936 89.8664 109.936C83.7581 109.936 77.9555 108.104 74.9011 106.729C73.2216 108.256 70.1672 110.7 68.0292 112.227C74.5959 115.281 81.315 116.961 87.7284 116.961C102.388 116.961 113.23 108.867 117.353 100.774C121.782 91.9163 121.476 76.6453 110.024 63.6652ZM32.4492 85.1968C32.602 89.7783 36.4195 93.443 41.0006 93.443H41.3062C46.0401 93.2907 49.7048 89.3199 49.552 84.586C49.3997 80.0044 45.5817 76.3397 41.0006 76.3397H40.6955C40.3898 76.3397 39.9314 76.3397 39.6267 76.4921C33.3656 66.1078 30.7697 54.8077 31.6861 42.5907C32.2964 33.428 35.3508 25.4869 40.6955 18.9202C45.1237 13.2699 53.6751 10.5211 59.4783 10.3688C75.6647 10.0632 82.5361 30.2208 82.9945 38.3147C84.9797 38.7727 88.3392 39.8419 90.63 40.6055C88.7972 15.8668 73.5267 3.03894 58.8675 3.03894C45.1237 3.03894 32.4492 12.9652 27.4097 27.6253C20.3855 47.1722 24.9666 65.9555 33.518 80.7685C32.7548 81.8372 32.2964 83.5172 32.4492 85.1972V85.1968Z" fill="#764ABC"/>
</g>
<defs>
<clipPath id="clip0_1_2440">
<rect width="120" height="120" fill="white"/>
</clipPath>
</defs>

<g id="Docker-iconSvg">
<path id="Vector" d="M117.523 49.7463C114.821 47.8713 108.628 47.1681 103.787 48.1056C103.224 43.4181 100.634 39.3171 96.1307 35.6842L93.5413 33.8092L91.7394 36.5046C89.488 40.0202 88.3621 44.9421 88.6996 49.6296C88.8121 51.2697 89.375 54.1994 91.0639 56.7775C89.488 57.715 86.2227 58.8869 81.9444 58.8869H0.541279L0.316279 59.8244C-0.472159 64.5114 -0.472159 79.1594 8.76034 90.4089C15.741 98.9632 26.0994 103.299 39.7227 103.299C69.2211 103.299 91.0639 89.1194 101.31 63.4567C105.363 63.5739 114.033 63.4567 118.424 54.6677C118.536 54.4333 118.761 53.9646 119.549 52.2072L120 51.2697L117.523 49.7463ZM65.6183 16.7008H53.2339V28.4191H65.6183V16.7008ZM65.6183 30.7628H53.2339V42.4811H65.6183V30.7624V30.7628ZM50.9816 30.7628H38.5972V42.4811H50.9816V30.7624V30.7628ZM36.3449 30.7628H23.96V42.4811H36.3449V30.7624V30.7628ZM21.7082 44.8249H9.32331V56.5432H21.7077V44.8244L21.7082 44.8249ZM36.3449 44.8249H23.96V56.5432H36.3449V44.8244V44.8249ZM50.9816 44.8249H38.5972V56.5432H50.9816V44.8244V44.8249ZM65.6188 44.8249H53.2335V56.5432H65.6188V44.8244V44.8249ZM80.2555 44.8249H67.8702V56.5432H80.2555V44.8244V44.8249Z" fill="#2396ED"/>
</g>
</svg>
